<svg xlink="http://www.w3.org/1999/xlink" viewBox="0 0 5000 5000" xmlns="http://www.w3.org/2000/svg" style="transform: scale(1);"><defs><filter id="goo"><feGaussianBlur in="SourceGraphic" stdDeviation="0" result="blur"></feGaussianBlur><feColorMatrix in="blur" type="matrix" values="1 0 0 0 0 0 1 0 0 0 0 0 1 0 0 0 0 0 19 -9" result="good"></feColorMatrix><feComposite in="SourceGraphic" in2="goo" operator="atop"></feComposite></filter><path d="M490,235C373,273 357,300 434,383C330,335 305,336 311,438C237,355 235,274 206,282C224,260 169,260 96,221C174,225 143,200 48,139C167,162 233,214 236,176C255,211 264,220 291,201C277,230 366,204 490,235z" id="P0"></path><path d="M123,425C180,334 201,302 141,340C184,281 209,258 169,245C210,237 182,207 137,144C215,176 245,175 285,113C290,187 335,180 445,173C354,223 281,246 311,254C280,262 294,286 302,345C257,307 222,361 123,425z" id="P1"></path><path d="M429,192C342,226 292,242 334,239C294,261 277,269 283,302C262,280 267,341 239,429C221,339 229,284 194,303C215,269 209,261 168,255C209,234 204,201 204,134C242,186 264,139 329,50C322,163 333,197 429,192z" id="P2"></path><path d="M132,325C181,272 167,255 93,220C178,205 199,179 219,88C245,166 255,170 280,95C285,176 316,170 403,123C347,212 317,246 372,290C309,278 294,278 324,320C276,297 264,322 241,389C223,318 203,307 132,325z" id="P3"></path><path d="M306,421C262,342 247,301 225,346C225,295 186,318 92,337C155,262 144,223 75,139C181,166 210,149 224,45C243,146 250,171 270,94C290,177 327,186 429,192C349,250 304,268 338,314C288,291 300,328 306,421z" id="P4"></path><path d="M215,68C262,154 279,189 338,156C301,208 328,201 418,183C346,250 324,279 359,353C299,309 309,343 330,451C250,364 202,370 72,417C155,329 175,304 102,358C154,268 220,242 206,214C233,226 215,161 215,68z" id="P5"></path><path d="M220,203C238,224 225,172 220,93C250,168 257,216 279,188C273,223 345,181 465,180C370,265 299,281 313,337C274,300 270,327 260,404C235,329 212,331 148,390C181,307 134,304 6,281C124,218 226,233 220,203z" id="P6"></path></defs><rect id="RECT" width="5000" height="5000" fill="#E7E3CD"></rect><g id="group" fill="#FFF" filter=""><use x="-205" y="-220" href="#P3"></use><use x="-70" y="102" href="#P3"></use><use x="-200" y="258" href="#P3"></use><use x="-69" y="535" href="#P4"></use><use x="-143" y="622" href="#P0"></use><use x="-123" y="824" href="#P2"></use><use x="-143" y="1113" href="#P1"></use><use x="-83" y="1279" href="#P5"></use><use x="-20" y="1478" href="#P6"></use><use x="-62" y="1749" href="#P6"></use><use x="-132" y="1901" href="#P3"></use><use x="-145" y="2153" href="#P1"></use><use x="-110" y="2314" href="#P5"></use><use x="-10" y="2579" href="#P2"></use><use x="-157" y="2723" href="#P3"></use><use x="-36" y="2836" href="#P0"></use><use x="-178" y="3162" href="#P4"></use><use x="-137" y="3203" href="#P2"></use><use x="-185" y="3582" href="#P3"></use><use x="-18" y="3753" href="#P1"></use><use x="-82" y="3828" href="#P6"></use><use x="-101" y="4054" href="#P4"></use><use x="-129" y="4248" href="#P1"></use><use x="-44" y="4472" href="#P5"></use><use x="-142" y="4771" href="#P0"></use><use x="-206" y="4863" href="#P2"></use><use x="-72" y="5020" href="#P2"></use><use x="-45" y="5387" href="#P0"></use><use x="158" y="-148" href="#P0"></use><use x="146" y="173" href="#P5"></use><use x="162" y="233" href="#P0"></use><use x="173" y="495" href="#P0"></use><use x="144" y="778" href="#P2"></use><use x="203" y="803" href="#P1"></use><use x="32" y="1199" href="#P3"></use><use x="95" y="1286" href="#P2"></use><use x="60" y="1403" href="#P4"></use><use x="58" y="1776" href="#P3"></use><use x="170" y="1982" href="#P3"></use><use x="226" y="2004" href="#P4"></use><use x="175" y="2323" href="#P1"></use><use x="54" y="2420" href="#P3"></use><use x="215" y="2675" href="#P5"></use><use x="210" y="2939" href="#P4"></use><use x="195" y="3072" href="#P1"></use><use x="33" y="3340" href="#P2"></use><use x="172" y="3479" href="#P3"></use><use x="76" y="3667" href="#P5"></use><use x="189" y="3847" href="#P2"></use><use x="173" y="4183" href="#P5"></use><use x="78" y="4218" href="#P5"></use><use x="116" y="4426" href="#P4"></use><use x="116" y="4764" href="#P6"></use><use x="20" y="4954" href="#P4"></use><use x="49" y="5125" href="#P6"></use><use x="38" y="5306" href="#P2"></use><use x="400" y="-58" href="#P3"></use><use x="371" y="168" href="#P4"></use><use x="274" y="245" href="#P4"></use><use x="324" y="537" href="#P1"></use><use x="348" y="781" href="#P4"></use><use x="295" y="864" href="#P6"></use><use x="206" y="1013" href="#P5"></use><use x="249" y="1269" href="#P1"></use><use x="388" y="1481" href="#P5"></use><use x="308" y="1666" href="#P3"></use><use x="353" y="1818" href="#P1"></use><use x="356" y="2014" href="#P1"></use><use x="404" y="2305" href="#P4"></use><use x="247" y="2540" href="#P3"></use><use x="297" y="2602" href="#P5"></use><use x="312" y="2853" href="#P1"></use><use x="396" y="3026" href="#P5"></use><use x="394" y="3345" href="#P0"></use><use x="281" y="3489" href="#P5"></use><use x="234" y="3659" href="#P5"></use><use x="345" y="3986" href="#P5"></use><use x="281" y="4069" href="#P4"></use><use x="206" y="4193" href="#P1"></use><use x="258" y="4436" href="#P0"></use><use x="270" y="4694" href="#P5"></use><use x="270" y="4899" href="#P3"></use><use x="324" y="5205" href="#P3"></use><use x="260" y="5345" href="#P1"></use><use x="565" y="-65" href="#P4"></use><use x="433" y="160" href="#P3"></use><use x="488" y="351" href="#P0"></use><use x="470" y="467" href="#P1"></use><use x="505" y="658" href="#P5"></use><use x="508" y="923" href="#P3"></use><use x="405" y="1173" href="#P2"></use><use x="460" y="1296" href="#P0"></use><use x="549" y="1607" href="#P6"></use><use x="468" y="1676" href="#P5"></use><use x="439" y="1875" href="#P6"></use><use x="589" y="2043" href="#P1"></use><use x="593" y="2274" href="#P4"></use><use x="442" y="2498" href="#P0"></use><use x="536" y="2738" href="#P3"></use><use x="605" y="2859" href="#P0"></use><use x="546" y="3013" href="#P5"></use><use x="491" y="3197" href="#P1"></use><use x="501" y="3489" href="#P4"></use><use x="588" y="3723" href="#P0"></use><use x="587" y="3935" href="#P5"></use><use x="608" y="4044" href="#P5"></use><use x="580" y="4322" href="#P4"></use><use x="541" y="4414" href="#P6"></use><use x="542" y="4671" href="#P4"></use><use x="438" y="4799" href="#P2"></use><use x="565" y="5166" href="#P5"></use><use x="420" y="5299" href="#P3"></use><use x="617" y="-171" href="#P0"></use><use x="633" y="30" href="#P1"></use><use x="661" y="257" href="#P4"></use><use x="612" y="471" href="#P2"></use><use x="714" y="669" href="#P2"></use><use x="728" y="978" href="#P2"></use><use x="742" y="1098" href="#P6"></use><use x="798" y="1282" href="#P3"></use><use x="722" y="1441" href="#P3"></use><use x="764" y="1663" href="#P2"></use><use x="709" y="1830" href="#P6"></use><use x="747" y="2069" href="#P4"></use><use x="767" y="2204" href="#P3"></use><use x="673" y="2443" href="#P0"></use><use x="800" y="2694" href="#P4"></use><use x="759" y="2849" href="#P1"></use><use x="806" y="3099" href="#P3"></use><use x="768" y="3328" href="#P3"></use><use x="669" y="3404" href="#P5"></use><use x="741" y="3697" href="#P5"></use><use x="799" y="3852" href="#P5"></use><use x="723" y="4131" href="#P2"></use><use x="697" y="4220" href="#P5"></use><use x="605" y="4531" href="#P4"></use><use x="611" y="4625" href="#P1"></use><use x="673" y="4883" href="#P1"></use><use x="678" y="5058" href="#P6"></use><use x="669" y="5224" href="#P6"></use><use x="863" y="-51" href="#P5"></use><use x="904" y="111" href="#P0"></use><use x="959" y="318" href="#P5"></use><use x="974" y="466" href="#P4"></use><use x="1001" y="810" href="#P0"></use><use x="984" y="943" href="#P2"></use><use x="921" y="1037" href="#P3"></use><use x="998" y="1339" href="#P4"></use><use x="914" y="1572" href="#P3"></use><use x="865" y="1716" href="#P4"></use><use x="1002" y="1954" href="#P3"></use><use x="994" y="2061" href="#P3"></use><use x="909" y="2288" href="#P5"></use><use x="1008" y="2516" href="#P2"></use><use x="947" y="2755" href="#P3"></use><use x="962" y="2943" href="#P4"></use><use x="980" y="3052" href="#P0"></use><use x="968" y="3367" href="#P3"></use><use x="865" y="3483" href="#P0"></use><use x="1015" y="3678" href="#P2"></use><use x="997" y="3778" href="#P2"></use><use x="942" y="4094" href="#P4"></use><use x="900" y="4279" href="#P5"></use><use x="885" y="4534" href="#P2"></use><use x="818" y="4600" href="#P2"></use><use x="905" y="4848" href="#P5"></use><use x="985" y="5043" href="#P3"></use><use x="922" y="5379" href="#P6"></use><use x="1012" y="-84" href="#P2"></use><use x="1051" y="129" href="#P6"></use><use x="1124" y="251" href="#P5"></use><use x="1120" y="406" href="#P5"></use><use x="1020" y="703" href="#P2"></use><use x="1215" y="968" href="#P5"></use><use x="1136" y="1097" href="#P3"></use><use x="1055" y="1302" href="#P3"></use><use x="1020" y="1596" href="#P5"></use><use x="1186" y="1761" href="#P3"></use><use x="1148" y="1912" href="#P4"></use><use x="1053" y="2030" href="#P4"></use><use x="1226" y="2268" href="#P2"></use><use x="1096" y="2521" href="#P5"></use><use x="1103" y="2600" href="#P4"></use><use x="1054" y="2832" href="#P6"></use><use x="1103" y="3095" href="#P2"></use><use x="1060" y="3216" href="#P0"></use><use x="1060" y="3476" href="#P5"></use><use x="1043" y="3611" href="#P0"></use><use x="1210" y="3793" href="#P4"></use><use x="1142" y="4061" href="#P1"></use><use x="1112" y="4290" href="#P1"></use><use x="1184" y="4370" href="#P3"></use><use x="1101" y="4606" href="#P2"></use><use x="1026" y="4785" href="#P6"></use><use x="1121" y="5147" href="#P4"></use><use x="1036" y="5259" href="#P4"></use><use x="1229" y="-12" href="#P2"></use><use x="1263" y="79" href="#P5"></use><use x="1298" y="366" href="#P6"></use><use x="1413" y="513" href="#P1"></use><use x="1400" y="812" href="#P0"></use><use x="1326" y="908" href="#P1"></use><use x="1350" y="1191" href="#P0"></use><use x="1274" y="1322" href="#P4"></use><use x="1347" y="1514" href="#P5"></use><use x="1238" y="1771" href="#P6"></use><use x="1385" y="1963" href="#P6"></use><use x="1340" y="2019" href="#P2"></use><use x="1263" y="2236" href="#P5"></use><use x="1389" y="2425" href="#P6"></use><use x="1394" y="2614" href="#P0"></use><use x="1332" y="2978" href="#P3"></use><use x="1295" y="3071" href="#P4"></use><use x="1303" y="3203" href="#P1"></use><use x="1359" y="3525" href="#P3"></use><use x="1270" y="3667" href="#P4"></use><use x="1369" y="3882" href="#P1"></use><use x="1412" y="4101" href="#P0"></use><use x="1397" y="4191" href="#P6"></use><use x="1412" y="4511" href="#P6"></use><use x="1346" y="4767" href="#P5"></use><use x="1368" y="4975" href="#P5"></use><use x="1222" y="5175" href="#P1"></use><use x="1248" y="5286" href="#P5"></use><use x="1472" y="-142" href="#P1"></use><use x="1586" y="122" href="#P1"></use><use x="1471" y="331" href="#P0"></use><use x="1599" y="476" href="#P3"></use><use x="1588" y="632" href="#P2"></use><use x="1538" y="819" href="#P5"></use><use x="1579" y="1136" href="#P2"></use><use x="1588" y="1252" href="#P1"></use><use x="1535" y="1585" href="#P1"></use><use x="1530" y="1774" href="#P0"></use><use x="1462" y="1901" href="#P0"></use><use x="1467" y="2093" href="#P0"></use><use x="1506" y="2315" href="#P1"></use><use x="1554" y="2436" href="#P0"></use><use x="1512" y="2713" href="#P6"></use><use x="1614" y="2839" href="#P2"></use><use x="1520" y="3023" href="#P3"></use><use x="1496" y="3236" href="#P0"></use><use x="1619" y="3442" href="#P4"></use><use x="1474" y="3724" href="#P5"></use><use x="1542" y="3957" href="#P0"></use><use x="1580" y="3989" href="#P4"></use><use x="1589" y="4312" href="#P6"></use><use x="1507" y="4561" href="#P3"></use><use x="1581" y="4687" href="#P3"></use><use x="1447" y="4927" href="#P2"></use><use x="1407" y="5087" href="#P0"></use><use x="1454" y="5184" href="#P2"></use><use x="1798" y="-107" href="#P6"></use><use x="1636" y="16" href="#P1"></use><use x="1745" y="325" href="#P4"></use><use x="1675" y="595" href="#P0"></use><use x="1720" y="753" href="#P2"></use><use x="1770" y="976" href="#P4"></use><use x="1725" y="1169" href="#P3"></use><use x="1613" y="1242" href="#P4"></use><use x="1696" y="1605" href="#P1"></use><use x="1672" y="1729" href="#P4"></use><use x="1721" y="1887" href="#P3"></use><use x="1814" y="2026" href="#P1"></use><use x="1672" y="2218" href="#P1"></use><use x="1715" y="2494" href="#P5"></use><use x="1743" y="2740" href="#P2"></use><use x="1733" y="2804" href="#P5"></use><use x="1635" y="3103" href="#P5"></use><use x="1665" y="3227" href="#P2"></use><use x="1704" y="3468" href="#P1"></use><use x="1810" y="3591" href="#P3"></use><use x="1700" y="3809" href="#P0"></use><use x="1740" y="3983" href="#P5"></use><use x="1681" y="4345" href="#P2"></use><use x="1624" y="4369" href="#P1"></use><use x="1665" y="4752" href="#P2"></use><use x="1637" y="4771" href="#P1"></use><use x="1643" y="5061" href="#P1"></use><use x="1696" y="5262" href="#P0"></use><use x="1989" y="-39" href="#P1"></use><use x="1873" y="87" href="#P4"></use><use x="1996" y="277" href="#P5"></use><use x="1984" y="599" href="#P2"></use><use x="1870" y="790" href="#P0"></use><use x="1928" y="959" href="#P3"></use><use x="2004" y="1189" href="#P0"></use><use x="1872" y="1335" href="#P0"></use><use x="1865" y="1545" href="#P6"></use><use x="1888" y="1725" href="#P3"></use><use x="1854" y="1888" href="#P0"></use><use x="1838" y="2125" href="#P4"></use><use x="1999" y="2232" href="#P2"></use><use x="1927" y="2551" href="#P3"></use><use x="1960" y="2601" href="#P3"></use><use x="1890" y="2871" href="#P2"></use><use x="1960" y="3028" href="#P6"></use><use x="1995" y="3329" href="#P5"></use><use x="1936" y="3499" href="#P4"></use><use x="1973" y="3614" href="#P0"></use><use x="1853" y="3944" href="#P5"></use><use x="1829" y="4024" href="#P1"></use><use x="1988" y="4258" href="#P1"></use><use x="1950" y="4376" href="#P3"></use><use x="1818" y="4600" href="#P6"></use><use x="1850" y="4919" href="#P6"></use><use x="1924" y="5084" href="#P1"></use><use x="1903" y="5381" href="#P4"></use><use x="2055" y="-94" href="#P2"></use><use x="2031" y="119" href="#P6"></use><use x="2186" y="408" href="#P3"></use><use x="2120" y="548" href="#P3"></use><use x="2010" y="770" href="#P5"></use><use x="2041" y="1009" href="#P3"></use><use x="2112" y="1144" href="#P3"></use><use x="2058" y="1245" href="#P4"></use><use x="2138" y="1528" href="#P1"></use><use x="2070" y="1781" href="#P4"></use><use x="2198" y="1840" href="#P0"></use><use x="2139" y="2051" href="#P4"></use><use x="2016" y="2215" href="#P5"></use><use x="2179" y="2566" href="#P3"></use><use x="2056" y="2689" href="#P1"></use><use x="2177" y="2807" href="#P5"></use><use x="2167" y="3108" href="#P5"></use><use x="2018" y="3263" href="#P6"></use><use x="2040" y="3501" href="#P2"></use><use x="2198" y="3619" href="#P4"></use><use x="2101" y="3791" href="#P1"></use><use x="2031" y="4010" href="#P0"></use><use x="2131" y="4254" href="#P6"></use><use x="2120" y="4491" href="#P1"></use><use x="2062" y="4656" href="#P5"></use><use x="2153" y="4875" href="#P5"></use><use x="2074" y="5170" href="#P3"></use><use x="2070" y="5265" href="#P2"></use><use x="2303" y="-163" href="#P6"></use><use x="2271" y="15" href="#P5"></use><use x="2218" y="409" href="#P4"></use><use x="2308" y="480" href="#P4"></use><use x="2337" y="805" href="#P4"></use><use x="2251" y="871" href="#P5"></use><use x="2378" y="1199" href="#P4"></use><use x="2378" y="1365" href="#P3"></use><use x="2329" y="1578" href="#P4"></use><use x="2382" y="1751" href="#P3"></use><use x="2238" y="1905" href="#P0"></use><use x="2317" y="2012" href="#P3"></use><use x="2399" y="2311" href="#P0"></use><use x="2324" y="2496" href="#P4"></use><use x="2223" y="2659" href="#P1"></use><use x="2381" y="2890" href="#P6"></use><use x="2212" y="3122" href="#P0"></use><use x="2323" y="3267" href="#P3"></use><use x="2298" y="3471" href="#P2"></use><use x="2334" y="3641" href="#P3"></use><use x="2367" y="3774" href="#P2"></use><use x="2384" y="4045" href="#P3"></use><use x="2241" y="4200" href="#P5"></use><use x="2254" y="4473" href="#P2"></use><use x="2266" y="4664" href="#P1"></use><use x="2386" y="4976" href="#P6"></use><use x="2369" y="5005" href="#P0"></use><use x="2317" y="5231" href="#P3"></use><use x="2520" y="1" href="#P3"></use><use x="2454" y="154" href="#P3"></use><use x="2431" y="278" href="#P4"></use><use x="2594" y="569" href="#P0"></use><use x="2595" y="702" href="#P3"></use><use x="2510" y="961" href="#P4"></use><use x="2559" y="1133" href="#P1"></use><use x="2423" y="1227" href="#P2"></use><use x="2536" y="1531" href="#P6"></use><use x="2492" y="1770" href="#P6"></use><use x="2441" y="1917" href="#P4"></use><use x="2523" y="2201" href="#P2"></use><use x="2582" y="2258" href="#P3"></use><use x="2566" y="2564" href="#P2"></use><use x="2571" y="2625" href="#P2"></use><use x="2544" y="2922" href="#P6"></use><use x="2565" y="3038" href="#P1"></use><use x="2427" y="3235" href="#P6"></use><use x="2471" y="3532" href="#P6"></use><use x="2417" y="3714" href="#P3"></use><use x="2596" y="3859" href="#P6"></use><use x="2572" y="4076" href="#P6"></use><use x="2444" y="4212" href="#P6"></use><use x="2598" y="4501" href="#P0"></use><use x="2489" y="4718" href="#P6"></use><use x="2554" y="4918" href="#P1"></use><use x="2498" y="5182" href="#P3"></use><use x="2423" y="5293" href="#P5"></use><use x="2675" y="-159" href="#P6"></use><use x="2689" y="220" href="#P5"></use><use x="2635" y="340" href="#P6"></use><use x="2716" y="578" href="#P5"></use><use x="2654" y="784" href="#P4"></use><use x="2605" y="940" href="#P6"></use><use x="2776" y="1087" href="#P6"></use><use x="2636" y="1235" href="#P6"></use><use x="2707" y="1448" href="#P4"></use><use x="2762" y="1662" href="#P1"></use><use x="2655" y="1926" href="#P3"></use><use x="2613" y="2111" href="#P4"></use><use x="2773" y="2210" href="#P4"></use><use x="2635" y="2560" href="#P1"></use><use x="2638" y="2778" href="#P2"></use><use x="2670" y="2859" href="#P6"></use><use x="2600" y="3059" href="#P2"></use><use x="2684" y="3324" href="#P5"></use><use x="2775" y="3415" href="#P2"></use><use x="2776" y="3746" href="#P2"></use><use x="2786" y="3921" href="#P5"></use><use x="2672" y="4094" href="#P0"></use><use x="2686" y="4283" href="#P1"></use><use x="2610" y="4487" href="#P2"></use><use x="2622" y="4593" href="#P6"></use><use x="2672" y="4781" href="#P1"></use><use x="2710" y="5021" href="#P3"></use><use x="2631" y="5343" href="#P4"></use><use x="2943" y="-37" href="#P0"></use><use x="2954" y="54" href="#P0"></use><use x="2875" y="340" href="#P1"></use><use x="2936" y="447" href="#P0"></use><use x="2841" y="628" href="#P5"></use><use x="2924" y="837" href="#P6"></use><use x="2934" y="1224" href="#P6"></use><use x="2870" y="1396" href="#P6"></use><use x="2933" y="1606" href="#P1"></use><use x="2953" y="1648" href="#P5"></use><use x="2949" y="1848" href="#P5"></use><use x="2951" y="2069" href="#P1"></use><use x="2902" y="2262" href="#P6"></use><use x="2941" y="2471" href="#P6"></use><use x="2961" y="2741" href="#P5"></use><use x="2923" y="2818" href="#P4"></use><use x="2865" y="2987" href="#P6"></use><use x="2910" y="3220" href="#P4"></use><use x="2844" y="3518" href="#P2"></use><use x="2923" y="3726" href="#P5"></use><use x="2963" y="3910" href="#P3"></use><use x="2940" y="4110" href="#P6"></use><use x="2914" y="4212" href="#P6"></use><use x="2810" y="4397" href="#P3"></use><use x="2824" y="4583" href="#P4"></use><use x="2908" y="4848" href="#P6"></use><use x="2824" y="5037" href="#P5"></use><use x="2883" y="5258" href="#P1"></use><use x="3082" y="-167" href="#P2"></use><use x="3027" y="64" href="#P3"></use><use x="2994" y="312" href="#P1"></use><use x="3155" y="515" href="#P6"></use><use x="3067" y="694" href="#P5"></use><use x="3027" y="929" href="#P4"></use><use x="3050" y="1064" href="#P0"></use><use x="3052" y="1300" href="#P1"></use><use x="3086" y="1558" href="#P2"></use><use x="3106" y="1631" href="#P6"></use><use x="3102" y="1927" href="#P0"></use><use x="3005" y="2126" href="#P5"></use><use x="3079" y="2337" href="#P6"></use><use x="3154" y="2521" href="#P6"></use><use x="3143" y="2612" href="#P2"></use><use x="3158" y="2945" href="#P1"></use><use x="3154" y="3158" href="#P4"></use><use x="3141" y="3304" href="#P3"></use><use x="3063" y="3520" href="#P3"></use><use x="3156" y="3620" href="#P6"></use><use x="3035" y="3806" href="#P1"></use><use x="3107" y="3977" href="#P4"></use><use x="3078" y="4263" href="#P3"></use><use x="3113" y="4462" href="#P6"></use><use x="3132" y="4740" href="#P6"></use><use x="3003" y="4864" href="#P5"></use><use x="3106" y="5153" href="#P2"></use><use x="3002" y="5220" href="#P5"></use><use x="3357" y="-180" href="#P2"></use><use x="3216" y="82" href="#P2"></use><use x="3237" y="291" href="#P5"></use><use x="3250" y="470" href="#P1"></use><use x="3207" y="781" href="#P5"></use><use x="3372" y="857" href="#P4"></use><use x="3254" y="1180" href="#P5"></use><use x="3277" y="1390" href="#P0"></use><use x="3354" y="1569" href="#P5"></use><use x="3284" y="1783" href="#P4"></use><use x="3318" y="1837" href="#P0"></use><use x="3212" y="2095" href="#P4"></use><use x="3360" y="2290" href="#P4"></use><use x="3302" y="2554" href="#P4"></use><use x="3246" y="2598" href="#P2"></use><use x="3185" y="2949" href="#P2"></use><use x="3209" y="3086" href="#P6"></use><use x="3372" y="3243" href="#P3"></use><use x="3208" y="3505" href="#P4"></use><use x="3347" y="3747" href="#P5"></use><use x="3224" y="3921" href="#P2"></use><use x="3368" y="4073" href="#P1"></use><use x="3222" y="4339" href="#P3"></use><use x="3265" y="4466" href="#P2"></use><use x="3313" y="4595" href="#P5"></use><use x="3307" y="4845" href="#P3"></use><use x="3229" y="5037" href="#P6"></use><use x="3226" y="5251" href="#P5"></use><use x="3478" y="-27" href="#P4"></use><use x="3446" y="161" href="#P1"></use><use x="3424" y="353" href="#P2"></use><use x="3578" y="606" href="#P2"></use><use x="3474" y="780" href="#P4"></use><use x="3497" y="953" href="#P6"></use><use x="3491" y="1192" href="#P6"></use><use x="3501" y="1375" href="#P6"></use><use x="3460" y="1426" href="#P0"></use><use x="3507" y="1791" href="#P6"></use><use x="3520" y="1854" href="#P5"></use><use x="3490" y="2144" href="#P5"></use><use x="3513" y="2359" href="#P0"></use><use x="3557" y="2399" href="#P5"></use><use x="3383" y="2728" href="#P2"></use><use x="3444" y="2957" href="#P0"></use><use x="3475" y="3139" href="#P1"></use><use x="3525" y="3218" href="#P0"></use><use x="3395" y="3534" href="#P6"></use><use x="3530" y="3653" href="#P6"></use><use x="3463" y="3823" href="#P6"></use><use x="3508" y="4121" href="#P6"></use><use x="3477" y="4305" href="#P3"></use><use x="3578" y="4469" href="#P5"></use><use x="3412" y="4624" href="#P4"></use><use x="3521" y="4810" href="#P0"></use><use x="3557" y="5061" href="#P1"></use><use x="3434" y="5306" href="#P4"></use><use x="3672" y="-153" href="#P5"></use><use x="3713" y="187" href="#P6"></use><use x="3611" y="389" href="#P2"></use><use x="3717" y="596" href="#P5"></use><use x="3633" y="694" href="#P3"></use><use x="3756" y="943" href="#P1"></use><use x="3687" y="1051" href="#P2"></use><use x="3670" y="1343" href="#P0"></use><use x="3704" y="1572" href="#P0"></use><use x="3691" y="1630" href="#P1"></use><use x="3691" y="1940" href="#P4"></use><use x="3641" y="2100" href="#P6"></use><use x="3611" y="2241" href="#P6"></use><use x="3623" y="2572" href="#P0"></use><use x="3610" y="2769" href="#P6"></use><use x="3706" y="2792" href="#P5"></use><use x="3721" y="3023" href="#P0"></use><use x="3702" y="3294" href="#P5"></use><use x="3611" y="3493" href="#P4"></use><use x="3588" y="3597" href="#P0"></use><use x="3612" y="3810" href="#P3"></use><use x="3609" y="4032" href="#P2"></use><use x="3781" y="4336" href="#P6"></use><use x="3721" y="4404" href="#P0"></use><use x="3708" y="4596" href="#P1"></use><use x="3701" y="4800" href="#P3"></use><use x="3641" y="5179" href="#P0"></use><use x="3733" y="5207" href="#P0"></use><use x="3986" y="-154" href="#P4"></use><use x="3944" y="170" href="#P3"></use><use x="3798" y="212" href="#P1"></use><use x="3814" y="589" href="#P2"></use><use x="3874" y="797" href="#P3"></use><use x="3800" y="954" href="#P2"></use><use x="3949" y="1031" href="#P5"></use><use x="3786" y="1334" href="#P2"></use><use x="3851" y="1605" href="#P2"></use><use x="3942" y="1759" href="#P2"></use><use x="3930" y="1868" href="#P2"></use><use x="3878" y="2064" href="#P4"></use><use x="3827" y="2295" href="#P0"></use><use x="3885" y="2440" href="#P4"></use><use x="3775" y="2648" href="#P2"></use><use x="3882" y="2904" href="#P4"></use><use x="3810" y="3104" href="#P2"></use><use x="3934" y="3268" href="#P2"></use><use x="3832" y="3485" href="#P4"></use><use x="3881" y="3633" href="#P3"></use><use x="3928" y="3896" href="#P1"></use><use x="3978" y="4078" href="#P6"></use><use x="3884" y="4219" href="#P3"></use><use x="3951" y="4435" href="#P0"></use><use x="3938" y="4606" href="#P2"></use><use x="3887" y="4956" href="#P3"></use><use x="3818" y="5144" href="#P3"></use><use x="3963" y="5335" href="#P2"></use><use x="4149" y="-80" href="#P3"></use><use x="4100" y="96" href="#P4"></use><use x="4018" y="320" href="#P6"></use><use x="4109" y="550" href="#P5"></use><use x="4059" y="763" href="#P0"></use><use x="4142" y="964" href="#P4"></use><use x="3997" y="1128" href="#P3"></use><use x="4153" y="1254" href="#P0"></use><use x="4016" y="1521" href="#P5"></use><use x="4014" y="1724" href="#P5"></use><use x="4151" y="1902" href="#P1"></use><use x="4111" y="2138" href="#P3"></use><use x="4068" y="2357" href="#P2"></use><use x="4001" y="2546" href="#P5"></use><use x="4123" y="2717" href="#P2"></use><use x="4139" y="2867" href="#P5"></use><use x="4118" y="3121" href="#P5"></use><use x="4134" y="3217" href="#P3"></use><use x="4123" y="3550" href="#P0"></use><use x="4093" y="3648" href="#P1"></use><use x="4151" y="3781" href="#P0"></use><use x="4137" y="4143" href="#P3"></use><use x="4129" y="4300" href="#P2"></use><use x="4018" y="4414" href="#P6"></use><use x="4083" y="4653" href="#P5"></use><use x="4128" y="4811" href="#P2"></use><use x="4053" y="4991" href="#P1"></use><use x="4058" y="5226" href="#P1"></use><use x="4206" y="-4" href="#P4"></use><use x="4363" y="99" href="#P1"></use><use x="4295" y="284" href="#P0"></use><use x="4256" y="532" href="#P4"></use><use x="4277" y="644" href="#P3"></use><use x="4360" y="980" href="#P4"></use><use x="4205" y="1094" href="#P4"></use><use x="4239" y="1236" href="#P4"></use><use x="4341" y="1539" href="#P5"></use><use x="4184" y="1802" href="#P5"></use><use x="4373" y="1956" href="#P3"></use><use x="4285" y="2144" href="#P4"></use><use x="4349" y="2246" href="#P1"></use><use x="4212" y="2568" href="#P1"></use><use x="4215" y="2629" href="#P4"></use><use x="4312" y="2828" href="#P3"></use><use x="4232" y="3053" href="#P3"></use><use x="4344" y="3215" href="#P4"></use><use x="4255" y="3414" href="#P1"></use><use x="4255" y="3624" href="#P0"></use><use x="4226" y="3777" href="#P0"></use><use x="4238" y="4107" href="#P1"></use><use x="4245" y="4187" href="#P1"></use><use x="4289" y="4429" href="#P2"></use><use x="4258" y="4587" href="#P3"></use><use x="4306" y="4854" href="#P5"></use><use x="4396" y="5107" href="#P6"></use><use x="4357" y="5218" href="#P5"></use><use x="4504" y="-178" href="#P6"></use><use x="4409" y="202" href="#P2"></use><use x="4414" y="390" href="#P1"></use><use x="4513" y="418" href="#P1"></use><use x="4403" y="714" href="#P4"></use><use x="4519" y="980" href="#P0"></use><use x="4452" y="1189" href="#P1"></use><use x="4478" y="1233" href="#P2"></use><use x="4558" y="1563" href="#P2"></use><use x="4527" y="1751" href="#P5"></use><use x="4488" y="1943" href="#P5"></use><use x="4553" y="2161" href="#P0"></use><use x="4486" y="2315" href="#P0"></use><use x="4387" y="2552" href="#P1"></use><use x="4412" y="2603" href="#P5"></use><use x="4455" y="2800" href="#P4"></use><use x="4517" y="3007" href="#P3"></use><use x="4437" y="3374" href="#P6"></use><use x="4471" y="3540" href="#P4"></use><use x="4520" y="3636" href="#P6"></use><use x="4455" y="3865" href="#P6"></use><use x="4436" y="4128" href="#P4"></use><use x="4445" y="4279" href="#P3"></use><use x="4406" y="4528" href="#P5"></use><use x="4522" y="4591" href="#P2"></use><use x="4400" y="4877" href="#P3"></use><use x="4426" y="5118" href="#P3"></use><use x="4461" y="5201" href="#P3"></use><use x="4597" y="-161" href="#P4"></use><use x="4613" y="110" href="#P5"></use><use x="4728" y="366" href="#P3"></use><use x="4675" y="490" href="#P0"></use><use x="4674" y="732" href="#P5"></use><use x="4655" y="881" href="#P2"></use><use x="4725" y="1138" href="#P4"></use><use x="4779" y="1211" href="#P0"></use><use x="4675" y="1482" href="#P1"></use><use x="4578" y="1650" href="#P6"></use><use x="4726" y="1843" href="#P6"></use><use x="4676" y="2155" href="#P6"></use><use x="4646" y="2337" href="#P3"></use><use x="4584" y="2445" href="#P6"></use><use x="4682" y="2693" href="#P3"></use><use x="4715" y="2899" href="#P6"></use><use x="4697" y="3129" href="#P2"></use><use x="4771" y="3205" href="#P4"></use><use x="4577" y="3544" href="#P1"></use><use x="4724" y="3754" href="#P0"></use><use x="4646" y="3937" href="#P6"></use><use x="4718" y="4032" href="#P2"></use><use x="4733" y="4300" href="#P6"></use><use x="4745" y="4571" href="#P0"></use><use x="4646" y="4749" href="#P0"></use><use x="4725" y="4854" href="#P6"></use><use x="4670" y="5208" href="#P4"></use><use x="4676" y="5312" href="#P2"></use><use x="4946" y="-74" href="#P2"></use><use x="4993" y="125" href="#P6"></use><use x="4966" y="230" href="#P3"></use><use x="4956" y="511" href="#P0"></use><use x="4810" y="752" href="#P5"></use><use x="4897" y="907" href="#P1"></use><use x="4963" y="1086" href="#P2"></use><use x="4943" y="1273" href="#P4"></use><use x="4812" y="1481" href="#P3"></use><use x="4830" y="1773" href="#P3"></use><use x="4990" y="1890" href="#P5"></use><use x="4901" y="2034" href="#P0"></use><use x="4787" y="2345" href="#P6"></use><use x="4889" y="2536" href="#P1"></use><use x="4792" y="2613" href="#P0"></use><use x="4985" y="2983" href="#P3"></use><use x="4813" y="3063" href="#P0"></use><use x="4827" y="3387" href="#P1"></use><use x="4972" y="3396" href="#P0"></use><use x="4952" y="3654" href="#P4"></use><use x="4800" y="3853" href="#P3"></use><use x="4958" y="4071" href="#P4"></use><use x="4919" y="4267" href="#P6"></use><use x="4930" y="4426" href="#P6"></use><use x="4806" y="4701" href="#P1"></use><use x="4950" y="4920" href="#P4"></use><use x="4824" y="5072" href="#P1"></use><use x="4827" y="5279" href="#P2"></use><use x="5190" y="-107" href="#P5"></use><use x="5164" y="96" href="#P6"></use><use x="5157" y="241" href="#P4"></use><use x="5101" y="407" href="#P4"></use><use x="5177" y="643" href="#P5"></use><use x="5149" y="981" href="#P3"></use><use x="5068" y="1004" href="#P5"></use><use x="5124" y="1276" href="#P2"></use><use x="5178" y="1400" href="#P4"></use><use x="5063" y="1669" href="#P3"></use><use x="5040" y="1990" href="#P6"></use><use x="5145" y="2025" href="#P4"></use><use x="5048" y="2263" href="#P1"></use><use x="5024" y="2476" href="#P0"></use><use x="5089" y="2603" href="#P2"></use><use x="5137" y="2846" href="#P5"></use><use x="5080" y="3113" href="#P4"></use><use x="5034" y="3372" href="#P6"></use><use x="5012" y="3393" href="#P6"></use><use x="5060" y="3789" href="#P5"></use><use x="5019" y="3959" href="#P6"></use><use x="5186" y="4060" href="#P0"></use><use x="5108" y="4292" href="#P2"></use><use x="5065" y="4581" href="#P4"></use><use x="5071" y="4626" href="#P0"></use><use x="5122" y="4964" href="#P3"></use><use x="5109" y="5033" href="#P1"></use><use x="5071" y="5351" href="#P3"></use></g></svg>